<svg width="1200" height="260" viewBox="0 0 1200 260" xmlns="http://www.w3.org/2000/svg">

  <g transform="translate(30, 5)">

    <g transform="scale(0.8)">

      <path d="M10 300 L145 10 L280 300 Z" fill="none" stroke="#D4AF37" stroke-width="3"/>
      <path d="M160 300 L265 80 L370 300 Z" fill="none" stroke="#D4AF37" stroke-width="2.5"/>

      <path d="M10 300 L77 155 L145 300 Z" fill="#0066FF" />
      <path d="M75 300 L145 155 L215 300 Z" fill="#0066FF" />
      <path d="M145 300 L212 155 L280 300 Z" fill="#0066FF" />

      <g transform="translate(15, 0)">
        <path d="M 138 60 L 165 60 Q 175 60 190 75 Q 175 68 165 68 L 165 135 L 160 145 L 155 135 L 155 68 L 138 65 Z M 160 62 a 2 2 0 1 0 0 4 a 2 2 0 1 0 0 -4 Z" fill="#D4AF37" fill-rule="evenodd"/> 
        <rect x="135" y="85" width="50" height="10" fill="#D4AF37"/>
        <rect x="155" y="140" width="10" height="145" fill="#D4AF37"/>
        <path d="M 155 285 L 165 285 L 160 300 Z" fill="#D4AF37"/>
      </g>

    </g>

  </g>

  <g transform="translate(360, 85)">

    <text x="0" y="0" font-family="'Montserrat', sans-serif" font-size="42" font-weight="700" fill="#00D4FF" letter-spacing="1">
      Movimiento Juvenil de Cumbres
    </text>
    
    <text x="0" y="85" font-family="'Montserrat', sans-serif" font-size="85" font-weight="900" fill="#FF3131">
      EL-SADDAY
    </text>
    
    <text x="0" y="135" font-family="'Montserrat', sans-serif" font-style="italic" font-weight="400" font-size="38" fill="#D4AF37">
      "servir es ascender"
    </text>

  </g>

</svg>